<?xml version="1.0" encoding="utf-8"?>
<!-- Generator: Adobe Illustrator 16.0.0, SVG Export Plug-In . SVG Version: 6.00 Build 0)  -->
<!DOCTYPE svg PUBLIC "-//W3C//DTD SVG 1.1//EN" "http://www.w3.org/Graphics/SVG/1.1/DTD/svg11.dtd">
<svg version="1.1" id="Layer_1" xmlns="http://www.w3.org/2000/svg" xmlns:xlink="http://www.w3.org/1999/xlink" x="0px" y="0px"
	 width="16px" height="6.388px" viewBox="0 7.805 16 6.388" enable-background="new 0 7.805 16 6.388" xml:space="preserve">
<title>Asset 1</title>
<g id="Layer_2">
	<g id="Layer_1-2">
		<path d="M16,13.838V7.805h-5.027v0.33l0,0v5.703l0,0v0.33H16V13.838z M15.67,13.838h-4.367V8.135h4.367V13.838z"/>
		<path d="M12.742,13.012v-1.725h2.012v-0.632h-2.012v-0.547l0,0c0-0.302,0.245-0.547,0.547-0.547l0,0h1.461V8.928h-1.461
			c-0.651,0-1.18,0.528-1.18,1.179l0,0v2.906h0.633V13.012z"/>
		<polygon fill="#0EB1AB" points="14.117,13.014 14.184,13.014 14.75,13.014 14.75,12.477 14.75,12.381 14.117,12.381 		"/>
		<path d="M0.135,11.156v0.359h0.402v0.127H0.135v0.603H0v-1.214h0.552v0.125H0.135z"/>
		<path d="M1.027,12.244H0.893v-1.213h0.134V12.244z"/>
		<path d="M1.408,10.979l0.946,0.991v-0.94h0.129v1.268l-0.946-0.99v0.935H1.408V10.979z"/>
		<path d="M2.857,11.031h0.629v0.125H2.992v0.359h0.479v0.127H2.992v0.477h0.494v0.125H2.857V11.031z"/>
		<path d="M3.972,12.244H3.837v-1.213h0.201c0.052,0,0.104,0.003,0.157,0.01c0.052,0.006,0.101,0.025,0.144,0.055
			c0.044,0.03,0.079,0.072,0.101,0.121c0.043,0.096,0.043,0.206,0,0.302c-0.019,0.045-0.048,0.085-0.086,0.116
			C4.313,11.668,4.267,11.69,4.216,11.7c-0.05,0.01-0.1,0.015-0.151,0.015H3.964L3.972,12.244z M3.972,11.588h0.09
			c0.036,0,0.072-0.004,0.106-0.01c0.031-0.006,0.061-0.018,0.088-0.035c0.025-0.016,0.046-0.039,0.06-0.066
			c0.016-0.034,0.024-0.07,0.022-0.107c0.002-0.041-0.007-0.081-0.027-0.117c-0.018-0.028-0.043-0.05-0.072-0.063
			c-0.032-0.014-0.066-0.023-0.101-0.026c-0.039-0.004-0.078-0.007-0.117-0.007h-0.05V11.588z"/>
		<path d="M5.338,11.01c0.084,0,0.168,0.016,0.246,0.049c0.075,0.032,0.143,0.078,0.201,0.135c0.057,0.058,0.104,0.126,0.136,0.201
			c0.066,0.156,0.066,0.332,0,0.488c-0.032,0.076-0.078,0.145-0.136,0.201c-0.058,0.057-0.126,0.103-0.201,0.135
			c-0.157,0.064-0.334,0.064-0.491,0c-0.075-0.032-0.143-0.078-0.201-0.135s-0.104-0.125-0.136-0.201
			c-0.066-0.156-0.066-0.332,0-0.488c0.032-0.075,0.078-0.143,0.136-0.201c0.058-0.057,0.126-0.103,0.201-0.135
			C5.17,11.026,5.254,11.009,5.338,11.01z M5.338,11.135c-0.067,0-0.133,0.013-0.195,0.039C5.084,11.2,5.03,11.236,4.985,11.282
			c-0.043,0.046-0.078,0.101-0.101,0.16c-0.026,0.062-0.039,0.128-0.039,0.195c-0.001,0.064,0.01,0.13,0.033,0.19
			c0.025,0.06,0.062,0.113,0.107,0.159c0.045,0.045,0.099,0.082,0.159,0.107c0.124,0.055,0.264,0.055,0.388,0
			c0.059-0.025,0.113-0.063,0.159-0.107c0.045-0.047,0.08-0.1,0.104-0.159c0.024-0.061,0.036-0.125,0.035-0.19
			c0-0.066-0.012-0.133-0.038-0.195c-0.023-0.059-0.057-0.113-0.101-0.16c-0.046-0.046-0.102-0.083-0.163-0.108
			C5.469,11.148,5.404,11.135,5.338,11.135z"/>
		<path d="M6.413,12.244H6.277v-1.213h0.135L6.413,12.244z"/>
		<path d="M6.787,10.979l0.946,0.991v-0.94h0.135v1.268l-0.946-0.99v0.935H6.787V10.979z"/>
		<path d="M8.563,12.244H8.428v-1.088H8.135v-0.125h0.724v0.125H8.563V12.244z"/>
		<path d="M4.797,13.564c0,0.041,0,0.08,0,0.117c-0.002,0.037-0.009,0.074-0.018,0.109s-0.022,0.069-0.038,0.102
			c-0.018,0.035-0.04,0.07-0.066,0.1c-0.055,0.064-0.124,0.115-0.201,0.15c-0.155,0.068-0.333,0.068-0.488,0
			c-0.149-0.064-0.268-0.184-0.332-0.332c-0.034-0.076-0.051-0.158-0.05-0.242c0-0.084,0.017-0.168,0.05-0.245
			c0.064-0.151,0.185-0.272,0.336-0.336c0.078-0.034,0.162-0.051,0.246-0.05c0.101-0.002,0.2,0.021,0.289,0.068
			c0.088,0.047,0.165,0.113,0.225,0.193l-0.101,0.092c-0.047-0.068-0.108-0.125-0.179-0.168c-0.072-0.041-0.154-0.063-0.237-0.061
			c-0.067,0-0.134,0.014-0.195,0.041c-0.059,0.027-0.112,0.064-0.157,0.111c-0.043,0.047-0.077,0.102-0.101,0.16
			C3.753,13.438,3.74,13.504,3.74,13.57c0,0.063,0.013,0.127,0.037,0.186c0.023,0.059,0.058,0.111,0.101,0.157
			c0.046,0.046,0.1,0.083,0.158,0.11c0.058,0.029,0.122,0.044,0.187,0.044c0.107,0.001,0.211-0.034,0.295-0.101
			c0.041-0.033,0.075-0.074,0.101-0.119c0.026-0.049,0.039-0.102,0.038-0.155H4.292v-0.128H4.797z"/>
		<path d="M5.245,14.049h0.334v0.126H5.11v-1.214h0.135V14.049z"/>
		<path d="M6.015,13.83l-0.146,0.344H5.721l0.56-1.271l0.545,1.271h-0.15L6.536,13.83H6.015z M6.277,13.219L6.07,13.704H6.48
			L6.277,13.219z"/>
		<path d="M7.628,13.197c-0.021-0.039-0.049-0.073-0.084-0.101c-0.037-0.024-0.081-0.036-0.125-0.034
			c-0.026,0-0.052,0.005-0.077,0.014c-0.023,0.01-0.045,0.021-0.064,0.039c-0.019,0.016-0.033,0.037-0.044,0.059
			c-0.011,0.024-0.017,0.051-0.016,0.077c0,0.024,0.006,0.048,0.018,0.068c0.012,0.02,0.028,0.037,0.046,0.052
			c0.019,0.016,0.039,0.028,0.061,0.039l0.064,0.029l0.081,0.035c0.038,0.017,0.075,0.035,0.112,0.056
			c0.033,0.019,0.064,0.042,0.092,0.069c0.026,0.026,0.048,0.057,0.063,0.092c0.016,0.039,0.024,0.082,0.023,0.125
			c0,0.051-0.009,0.102-0.029,0.148c-0.019,0.045-0.047,0.085-0.083,0.118c-0.035,0.034-0.077,0.06-0.122,0.079
			c-0.047,0.02-0.097,0.029-0.147,0.029c-0.046,0-0.092-0.008-0.135-0.022c-0.041-0.015-0.079-0.036-0.112-0.063
			c-0.033-0.028-0.061-0.063-0.083-0.101c-0.023-0.04-0.039-0.083-0.048-0.129l0.132-0.037c0.004,0.03,0.013,0.06,0.027,0.087
			c0.013,0.027,0.031,0.051,0.052,0.072c0.021,0.021,0.046,0.037,0.073,0.048c0.029,0.013,0.06,0.019,0.09,0.019
			c0.032,0,0.064-0.006,0.094-0.019c0.029-0.011,0.056-0.028,0.08-0.05c0.023-0.021,0.042-0.045,0.055-0.074
			c0.011-0.026,0.017-0.055,0.017-0.084c0.001-0.031-0.005-0.063-0.019-0.09c-0.013-0.025-0.03-0.047-0.05-0.064
			c-0.022-0.02-0.046-0.035-0.071-0.048l-0.083-0.039l-0.075-0.032c-0.035-0.016-0.069-0.033-0.101-0.051
			c-0.031-0.018-0.059-0.039-0.084-0.063c-0.024-0.023-0.044-0.052-0.058-0.083c-0.015-0.036-0.022-0.075-0.021-0.113
			c-0.002-0.087,0.035-0.169,0.101-0.226c0.032-0.027,0.069-0.048,0.108-0.063c0.042-0.014,0.085-0.021,0.129-0.021
			c0.132-0.002,0.253,0.07,0.313,0.188L7.628,13.197z"/>
		<path d="M8.646,13.197c-0.021-0.039-0.049-0.073-0.084-0.101c-0.037-0.024-0.081-0.036-0.125-0.034
			c-0.026,0-0.052,0.005-0.077,0.014c-0.023,0.01-0.045,0.021-0.064,0.039c-0.039,0.034-0.061,0.084-0.06,0.136
			c0,0.024,0.006,0.048,0.018,0.068c0.012,0.02,0.028,0.037,0.046,0.052c0.019,0.016,0.039,0.028,0.061,0.039l0.064,0.029
			l0.081,0.035c0.037,0.017,0.074,0.035,0.111,0.056c0.033,0.019,0.064,0.042,0.092,0.069c0.027,0.026,0.049,0.057,0.064,0.092
			c0.016,0.039,0.023,0.082,0.022,0.125c0.001,0.051-0.01,0.102-0.03,0.148c-0.02,0.045-0.047,0.085-0.082,0.118
			c-0.035,0.034-0.077,0.06-0.122,0.079c-0.047,0.02-0.097,0.029-0.147,0.029c-0.046,0-0.092-0.008-0.135-0.022
			c-0.041-0.015-0.079-0.036-0.112-0.063c-0.033-0.028-0.061-0.063-0.083-0.101c-0.021-0.038-0.035-0.081-0.043-0.124l0.131-0.037
			c0.004,0.031,0.013,0.061,0.027,0.088c0.013,0.026,0.031,0.051,0.052,0.071s0.046,0.036,0.073,0.048
			c0.029,0.012,0.06,0.019,0.091,0.019c0.032,0,0.063-0.007,0.093-0.019s0.057-0.027,0.08-0.049s0.041-0.046,0.055-0.074
			c0.015-0.029,0.021-0.061,0.021-0.094c0.002-0.031-0.006-0.063-0.02-0.091c-0.012-0.024-0.029-0.046-0.05-0.063
			c-0.021-0.02-0.046-0.035-0.071-0.048l-0.082-0.04L8.372,13.56c-0.036-0.017-0.069-0.033-0.101-0.052
			c-0.031-0.017-0.059-0.037-0.084-0.063c-0.024-0.023-0.044-0.051-0.057-0.082c-0.015-0.036-0.022-0.074-0.021-0.113
			c-0.002-0.086,0.035-0.17,0.101-0.226c0.032-0.027,0.069-0.048,0.109-0.063c0.041-0.015,0.084-0.022,0.128-0.022
			c0.132-0.002,0.253,0.071,0.314,0.188L8.646,13.197z"/>
	</g>
</g>
</svg>
